<svg width="31" height="108" viewBox="0 0 31 108" fill="none" xmlns="http://www.w3.org/2000/svg">
<path d="M16.536 44.944V40.944H12.536V44.944H16.536ZM17.76 72.304L14.9316 75.1324L14.9744 75.1753L15.0185 75.2168L17.76 72.304ZM26.832 73.456H30.832V69.456H26.832V73.456ZM26.832 79V83H30.832V79H26.832ZM9.984 44.944H13.984V40.944H9.984V44.944ZM4.872 44.944H0.872V48.944H4.872V44.944ZM4.872 39.544V35.544H0.872V39.544H4.872ZM9.984 39.544V43.544H13.984V39.544H9.984ZM9.984 29.608V25.608H5.984V29.608H9.984ZM16.536 29.608H20.536V25.608H16.536V29.608ZM16.536 39.544H12.536V43.544H16.536V39.544ZM26.832 39.544H30.832V35.544H26.832V39.544ZM26.832 44.944V48.944H30.832V44.944H26.832ZM12.536 44.944V68.2H20.536V44.944H12.536ZM12.536 68.2C12.536 70.5145 12.9984 73.1993 14.9316 75.1324L20.5884 69.4756C20.7488 69.6359 20.7337 69.7191 20.6752 69.5228C20.6124 69.3125 20.536 68.8971 20.536 68.2H12.536ZM15.0185 75.2168C16.9797 77.0626 19.7103 77.456 22.008 77.456V69.456C21.2318 69.456 20.7473 69.3797 20.4809 69.3074C20.2175 69.236 20.3059 69.2072 20.5015 69.3912L15.0185 75.2168ZM22.008 77.456H26.832V69.456H22.008V77.456ZM22.832 73.456V79H30.832V73.456H22.832ZM26.832 75H20.928V83H26.832V75ZM20.928 75C17.8187 75 16.2326 74.2772 15.4299 73.5378L10.0101 79.4222C12.8554 82.0428 16.7413 83 20.928 83V75ZM15.4299 73.5378C14.7874 72.9461 13.984 71.528 13.984 68.2H5.984C5.984 72.552 7.00457 76.6539 10.0101 79.4222L15.4299 73.5378ZM13.984 68.2V44.944H5.984V68.2H13.984ZM9.984 40.944H4.872V48.944H9.984V40.944ZM8.872 44.944V39.544H0.872V44.944H8.872ZM4.872 43.544H9.984V35.544H4.872V43.544ZM13.984 39.544V29.608H5.984V39.544H13.984ZM9.984 33.608H16.536V25.608H9.984V33.608ZM12.536 29.608V39.544H20.536V29.608H12.536ZM16.536 43.544H26.832V35.544H16.536V43.544ZM22.832 39.544V44.944H30.832V39.544H22.832ZM26.832 40.944H16.536V48.944H26.832V40.944Z" fill="url(#paint0_linear)"/>
<defs>
<linearGradient id="paint0_linear" x1="15.7418" y1="29.673" x2="26.3423" y2="79.6092" gradientUnits="userSpaceOnUse">
<stop offset="0.326033" stop-color="#19BAFF"/>
<stop offset="0.570824" stop-color="#00FFFF"/>
<stop offset="1" stop-color="#3300FF"/>
</linearGradient>
</defs>
</svg>
