<svg width="193" height="384" viewBox="0 0 193 384" fill="none" xmlns="http://www.w3.org/2000/svg">
<path d="M101 126.9V106.9H81V126.9H101ZM109.5 316.9L95.3579 331.042L95.5721 331.257L95.7927 331.464L109.5 316.9ZM172.5 324.9H192.5V304.9H172.5V324.9ZM172.5 363.4V383.4H192.5V363.4H172.5ZM74.5 345.9L60.9505 360.611L74.5 345.9ZM55.5 126.9H75.5V106.9H55.5V126.9ZM20 126.9H2.68221e-07V146.9H20V126.9ZM20 89.4002V69.4002H2.68221e-07V89.4002H20ZM55.5 89.4002V109.4H75.5V89.4002H55.5ZM55.5 20.4002V0.400244H35.5V20.4002H55.5ZM101 20.4002H121V0.400244H101V20.4002ZM101 89.4002H81V109.4H101V89.4002ZM172.5 89.4002H192.5V69.4002H172.5V89.4002ZM172.5 126.9V146.9H192.5V126.9H172.5ZM81 126.9V288.4H121V126.9H81ZM81 288.4C81 303.706 84.1054 319.79 95.3579 331.042L123.642 302.758C123.561 302.677 121 299.761 121 288.4H81ZM95.7927 331.464C107.185 342.186 123.592 344.9 139 344.9V304.9C133.159 304.9 129.068 304.332 126.36 303.597C123.666 302.867 123.023 302.163 123.207 302.336L95.7927 331.464ZM139 344.9H172.5V304.9H139V344.9ZM152.5 324.9V363.4H192.5V324.9H152.5ZM172.5 343.4H131.5V383.4H172.5V343.4ZM131.5 343.4C108.86 343.4 95.6097 338.153 88.0495 331.189L60.9505 360.611C78.7236 376.981 103.473 383.4 131.5 383.4V343.4ZM88.0495 331.189C81.2905 324.964 75.5 312.507 75.5 288.4H35.5C35.5 317.627 42.3762 343.503 60.9505 360.611L88.0495 331.189ZM75.5 288.4V126.9H35.5V288.4H75.5ZM55.5 106.9H20V146.9H55.5V106.9ZM40 126.9V89.4002H2.68221e-07V126.9H40ZM20 109.4H55.5V69.4002H20V109.4ZM75.5 89.4002V20.4002H35.5V89.4002H75.5ZM55.5 40.4002H101V0.400244H55.5V40.4002ZM81 20.4002V89.4002H121V20.4002H81ZM101 109.4H172.5V69.4002H101V109.4ZM152.5 89.4002V126.9H192.5V89.4002H152.5ZM172.5 106.9H101V146.9H172.5V106.9Z" fill="url(#paint0_linear)"/>
<defs>
<linearGradient id="paint0_linear" x1="93.3612" y1="19.4629" x2="168.624" y2="365.499" gradientUnits="userSpaceOnUse">
<stop offset="0.326033" stop-color="#19BAFF"/>
<stop offset="0.570824" stop-color="#00FFFF"/>
<stop offset="1" stop-color="#3300FF"/>
</linearGradient>
</defs>
</svg>
